HIERARCHY
ROOT Hips
{
 OFFSET 0.000000 0.000000 0.000000
 CHANNELS 6 Xposition Yposition Zposition Yrotation Xrotation Zrotation
 JOINT Chest
 {
  OFFSET 0.000000 9.585900 0.002600
  CHANNELS 3 Yrotation Xrotation Zrotation
  JOINT Chest2
  {
   OFFSET 0.000000 9.601200 -0.005300
   CHANNELS 3 Yrotation Xrotation Zrotation
   JOINT Chest3
   {
    OFFSET 0.000000 9.561800 0.000000
    CHANNELS 3 Yrotation Xrotation Zrotation
    JOINT Chest4
    {
     OFFSET 0.000000 9.552100 0.000000
     CHANNELS 3 Yrotation Xrotation Zrotation
     JOINT Neck
     {
      OFFSET 0.000000 14.453000 0.000000
      CHANNELS 3 Yrotation Xrotation Zrotation
      JOINT Head
      {
       OFFSET 0.000000 8.936500 -0.011300
       CHANNELS 3 Yrotation Xrotation Zrotation
       End Site
       {
        OFFSET 0.000000 17.073600 -0.006000
       }
      }
     }
     JOINT RightCollar
     {
      OFFSET -2.921100 9.558500 0.000000
      CHANNELS 3 Yrotation Xrotation Zrotation
      JOINT RightShoulder
      {
       OFFSET -13.519700 0.000000 0.000000
       CHANNELS 3 Yrotation Xrotation Zrotation
       JOINT RightElbow
       {
        OFFSET 0.000000 -29.696600 0.000000
        CHANNELS 3 Yrotation Xrotation Zrotation
        JOINT RightWrist
        {
         OFFSET 0.000000 -24.004700 0.000000
         CHANNELS 3 Yrotation Xrotation Zrotation
         End Site
         {
          OFFSET 0.000000 -17.728500 0.000000
         }
        }
       }
      }
     }
     JOINT LeftCollar
     {
      OFFSET 2.921100 9.558500 0.000000
      CHANNELS 3 Yrotation Xrotation Zrotation
      JOINT LeftShoulder
      {
       OFFSET 13.519700 0.000000 0.000000
       CHANNELS 3 Yrotation Xrotation Zrotation
       JOINT LeftElbow
       {
        OFFSET 0.000000 -29.696600 0.000000
        CHANNELS 3 Yrotation Xrotation Zrotation
        JOINT LeftWrist
        {
         OFFSET 0.000000 -24.004700 0.000000
         CHANNELS 3 Yrotation Xrotation Zrotation
         End Site
         {
          OFFSET 0.000000 -17.728500 0.000000
         }
        }
       }
      }
     }
    }
   }
  }
 }
 JOINT RightHip
 {
  OFFSET -7.771700 -0.012900 -0.001300
  CHANNELS 3 Yrotation Xrotation Zrotation
  JOINT RightKnee
  {
   OFFSET 0.000000 -40.869800 0.001200
   CHANNELS 3 Yrotation Xrotation Zrotation
   JOINT RightAnkle
   {
    OFFSET 0.000000 -39.717900 0.002100
    CHANNELS 3 Yrotation Xrotation Zrotation
    JOINT RightToe
    {
     OFFSET 0.000000 -4.965400 11.033500
     CHANNELS 3 Yrotation Xrotation Zrotation
     End Site
     {
      OFFSET 0.000000 -1.423100 5.872300
     }
    }
   }
  }
 }
 JOINT LeftHip
 {
  OFFSET 7.771700 -0.012900 -0.001300
  CHANNELS 3 Yrotation Xrotation Zrotation
  JOINT LeftKnee
  {
   OFFSET 0.000000 -40.869800 0.001200
   CHANNELS 3 Yrotation Xrotation Zrotation
   JOINT LeftAnkle
   {
    OFFSET 0.000000 -39.717900 0.002100
    CHANNELS 3 Yrotation Xrotation Zrotation
    JOINT LeftToe
    {
     OFFSET 0.000000 -4.965400 11.033500
     CHANNELS 3 Yrotation Xrotation Zrotation
     End Site
     {
      OFFSET 0.000000 -1.423100 5.872300
     }
    }
   }
  }
 }
}
MOTION
Frames: 8
Frame Time: 0.008333
-11.442919 55.140091 -28.026575 -179.540773 -17.051177 -1.812880 1.441386 16.665370 0.008862 0.135534 1.691143 0.003730 0.227693 2.837741 0.018812 1.204315 14.589842 0.086676 -2.723348 20.756015 7.197308 -4.651148 -3.242919 8.523354 1.018877 1.163370 2.540060 3.965844 -6.676983 -9.056137 -71.749803 -57.473148 105.894873 -17.198701 -10.422582 -3.772318 -6.126005 -1.795725 1.587372 0.739454 -11.317182 9.094962 64.120998 -64.990710 -102.448629 3.199420 -14.409765 4.326008 0.082140 -58.111641 12.145568 -121.575955 89.088965 -125.687778 -8.955198 -20.078614 10.445532 -0.002794 0.360284 -0.233879 10.062655 -54.545345 -5.912124 113.515567 77.482285 111.539412 -7.129498 -23.946642 1.047434 0.219325 0.418473 0.101376
-11.428990 55.156998 -28.034640 -179.512130 -17.042532 -1.839711 1.421199 16.627349 0.004781 0.134412 1.713277 0.021275 0.228467 2.812077 -0.001757 1.213764 14.579451 0.073932 -2.682311 20.678238 7.141119 -4.591255 -3.341110 8.447387 1.004545 1.135171 2.552146 3.967627 -6.649377 -9.052313 -71.785900 -57.500672 105.904714 -17.241834 -10.413819 -3.761265 -6.129048 -1.774215 1.608262 0.779845 -11.344160 9.054205 64.209157 -65.001906 -102.487983 3.219352 -14.316618 4.276901 -0.028079 -58.096307 12.256617 -120.262340 89.046847 -124.414596 -9.004510 -20.166614 10.496074 -0.009070 0.334907 -0.197049 9.974085 -54.571409 -5.857999 113.583739 77.473144 111.595385 -7.076853 -23.885145 1.038364 0.177543 0.357210 0.080435
-11.415059 55.173900 -28.042764 -179.494181 -17.037064 -1.865162 1.411091 16.592332 0.002324 0.138868 1.710263 0.020033 0.230662 2.781805 -0.025378 1.224128 14.597355 0.084141 -2.643669 20.593805 7.082632 -4.533479 -3.446981 8.369452 0.985029 1.107710 2.566366 3.958732 -6.678254 -9.082787 -71.747216 -57.475528 105.847760 -17.283376 -10.399375 -3.751075 -6.131315 -1.752379 1.630231 0.815547 -11.368654 9.014312 64.282165 -65.008194 -102.511417 3.220812 -14.290024 4.247288 -0.093094 -58.060538 12.328061 -118.425908 89.027693 -122.606520 -9.028891 -20.320038 10.583922 0.014972 0.371425 -0.201284 9.919840 -54.581060 -5.816429 113.593059 77.473542 111.604625 -7.013515 -23.809944 1.036076 0.125583 0.283863 0.053131
-11.403998 55.189746 -28.049945 -179.488181 -17.030573 -1.876539 1.409881 16.557487 -0.010411 0.136126 1.706656 0.017509 0.235880 2.769959 -0.034093 1.234569 14.596023 0.079047 -2.606711 20.502293 7.019102 -4.476339 -3.561175 8.286207 0.960447 1.080635 2.581345 3.943294 -6.701952 -9.101011 -71.716287 -57.457665 105.805773 -17.281651 -10.402075 -3.737392 -6.132966 -1.752782 1.638588 0.843313 -11.367921 8.990900 64.290947 -65.018623 -102.487547 3.212754 -14.328701 4.267408 -0.100284 -58.037528 12.341744 -117.573651 89.021318 -121.764536 -9.034875 -20.454922 10.677537 0.002397 0.386763 -0.219786 9.893025 -54.591066 -5.793854 113.608105 77.473327 111.619806 -6.984570 -23.777011 1.034618 0.099565 0.250544 0.039316
-11.391282 55.204644 -28.057627 -179.477381 -17.032915 -1.909479 1.409668 16.532259 -0.002191 0.139983 1.702708 0.016096 0.234457 2.783648 -0.022641 1.238514 14.590749 0.072546 -2.577497 20.380351 6.928252 -4.418471 -3.684162 8.196703 0.933397 1.030234 2.575434 3.946133 -6.666578 -9.085665 -71.778233 -57.481054 105.842990 -17.224965 -10.467410 -3.736750 -6.136790 -1.777446 1.633816 0.856752 -11.342270 8.989447 64.365946 -65.017320 -102.517644 3.210451 -14.328781 4.265653 -0.116048 -58.015287 12.379833 -116.542102 89.005602 -120.712497 -9.113161 -20.547736 10.781952 0.000771 0.374637 -0.236351 9.826395 -54.600495 -5.731580 113.638904 77.471309 111.648682 -6.935926 -23.703549 1.029909 0.059695 0.177976 0.020505
-11.384788 55.217298 -28.063696 -179.469316 -17.031587 -1.916325 1.401366 16.505298 -0.023110 0.141673 1.670449 -0.010000 0.238793 2.824607 0.015428 1.242366 14.585587 0.065599 -2.549359 20.251446 6.831939 -4.358177 -3.816303 8.101271 0.904105 0.978856 2.569721 3.949553 -6.629266 -9.068258 -71.778647 -57.478042 105.839807 -17.183521 -10.529138 -3.733743 -6.141299 -1.800391 1.633298 0.873701 -11.318067 8.984767 64.423061 -65.013190 -102.537227 3.213184 -14.291538 4.241769 -0.062312 -58.005301 12.342391 -117.481475 89.021483 -121.627086 -9.217519 -20.643987 10.910045 -0.002101 0.362363 -0.263789 9.797948 -54.607890 -5.715722 113.664585 77.471286 111.672418 -6.913755 -23.677366 1.023745 0.046029 0.152485 0.014747
-11.380137 55.227484 -28.067719 -179.461729 -17.023482 -1.923654 1.390924 16.472681 -0.045176 0.145169 1.681293 0.002096 0.239350 2.804080 -0.000023 1.250969 14.574436 0.054107 -2.513322 20.139815 6.749659 -4.294019 -3.957310 7.997855 0.873307 0.950633 2.586637 3.935134 -6.623459 -9.054100 -71.815256 -57.479324 105.857740 -17.203721 -10.522664 -3.723487 -6.141353 -1.800157 1.652848 0.898849 -11.302779 8.962481 64.365060 -65.024172 -102.479565 3.213010 -14.284431 4.236555 -0.012032 -58.003325 12.297231 -118.797431 89.046597 -122.924485 -9.278145 -20.748744 11.048151 -0.002049 0.354094 -0.299674 9.774073 -54.620341 -5.707562 113.644321 77.471462 111.658302 -6.897595 -23.652399 1.011568 0.040905 0.135167 0.011334
-11.377140 55.235586 -28.071315 -179.457386 -17.017772 -1.929835 1.381317 16.442020 -0.067337 0.150335 1.693580 0.013008 0.238541 2.787331 -0.017031 1.253091 14.529358 0.007850 -2.457312 20.050080 6.695071 -4.224840 -4.105963 7.883755 0.847903 0.949001 2.641468 3.920835 -6.603679 -9.034119 -71.868255 -57.483419 105.897639 -17.223819 -10.507936 -3.714532 -6.138875 -1.769289 1.709470 0.943143 -11.293320 8.909697 64.256826 -65.051989 -102.384065 3.199874 -14.335414 4.283667 0.004116 -57.995089 12.279741 -120.182888 89.066327 -124.316902 -9.316281 -20.866322 11.201450 -0.000043 0.353824 -0.339809 9.757824 -54.632641 -5.702037 113.649142 77.466039 111.666647 -6.884823 -23.632583 1.005826 0.031372 0.118000 0.006346
